<svg width="32" height="32" viewBox="0 0 32 32" xmlns="http://www.w3.org/2000/svg">
  <defs>
    <linearGradient id="homeGradient" x1="0%" y1="100%" x2="0%" y2="0%">
      <stop offset="0%" style="stop-color:#00ff88;stop-opacity:1">
        <animate attributeName="stop-color" values="#00ff88;#00cc6a;#00ff88" dur="3s" repeatCount="indefinite"/>
      </stop>
      <stop offset="100%" style="stop-color:#0a0e27;stop-opacity:1">
        <animate attributeName="stop-color" values="#0a0e27;#1f2937;#0a0e27" dur="3s" repeatCount="indefinite"/>
      </stop>
    </linearGradient>
  </defs>
  
  <!-- Home icon path scaled to 32x32 viewbox -->
  <path fill="none" stroke="url(#homeGradient)" stroke-width="1.8" stroke-linecap="round" stroke-linejoin="round"
        d="M4 16l2.667-2.667m0 0l9.333-9.333 9.333 9.333M6.667 13.333v13.334a1.333 1.333 0 001.333 1.333h4m13.333-14.667l2.667 2.667m-2.667-2.667v13.334a1.333 1.333 0 01-1.333 1.333h-4m-8 0a1.333 1.333 0 001.333-1.333v-5.334a1.333 1.333 0 011.334-1.333h2.666a1.333 1.333 0 011.334 1.333v5.334a1.333 1.333 0 001.333 1.333m-8 0h8">
    <animate attributeName="stroke-dasharray" 
             from="0,200" 
             to="200,0" 
             dur="2s" 
             repeatCount="indefinite"/>
  </path>
</svg>
