<svg width="32" height="32" viewBox="0 0 24 24" xmlns="http://www.w3.org/2000/svg">
  <defs>
    <linearGradient id="homeGradient" x1="0%" y1="100%" x2="0%" y2="0%">
      <stop offset="0%" style="stop-color:#00ff88;stop-opacity:1">
        <animate attributeName="stop-color" values="#00ff88;#00cc6a;#00ff88" dur="3s" repeatCount="indefinite"/>
      </stop>
      <stop offset="100%" style="stop-color:#0a0e27;stop-opacity:1">
        <animate attributeName="stop-color" values="#0a0e27;#1f2937;#0a0e27" dur="3s" repeatCount="indefinite"/>
      </stop>
    </linearGradient>
  </defs>
  
  <!-- Home icon path with original 24x24 viewBox coordinates -->
  <path fill="none" stroke="url(#homeGradient)" stroke-width="2" stroke-linecap="round" stroke-linejoin="round"
        d="M3 12l2-2m0 0l7-7 7 7M5 10v10a1 1 0 001 1h3m10-11l2 2m-2-2v10a1 1 0 01-1 1h-3m-6 0a1 1 0 001-1v-4a1 1 0 011-1h2a1 1 0 011 1v4a1 1 0 001 1m-6 0h6">
    <animate attributeName="stroke-dasharray" 
             from="0,200" 
             to="200,0" 
             dur="2s" 
             repeatCount="indefinite"/>
  </path>
</svg>
